<svg width="86" height="151" viewBox="0 0 86 151" fill="none" xmlns="http://www.w3.org/2000/svg">
<path d="M0.694336 46.6292C0.694336 47.9037 1.08598 49.1953 1.8998 50.3534L18.4488 79.1984C20.0121 81.9255 22.2317 84.2215 24.8796 85.9603C28.0907 88.0691 30.0589 91.3948 30.0589 94.9908V147.65C30.0589 149.5 31.6802 151 33.6802 151H63.6806H69.7279C71.7279 151 76.3711 149.5 76.3711 147.65V91.0274C76.3711 88.2399 77.7706 85.2153 79.8594 83.1709C83.3985 79.7067 85.2615 75.3729 85.2615 70.2772V21.1497C85.2615 19.2259 84.7085 17.7906 83.3262 16.5334C81.94 15.2725 80.0299 14.4935 77.9205 14.4935C76.2231 14.4935 74.6547 14.694 73.3863 15.5472C71.5668 16.771 70.3643 18.7121 70.2846 20.9109L69.9824 13.0385C69.9824 11.1183 69.4257 9.68277 68.0432 8.42221C67.3871 7.8255 66.6113 7.03252 65.7516 6.68343C64.8 6.29697 63.7456 6.08186 62.6374 6.08186C58.5049 6.08186 55.1408 9.07148 55.0015 12.7994L54.6993 6.95657C54.6993 5.03641 54.1463 3.60084 52.7637 2.33998C52.1055 1.74297 51.3289 0.949989 50.4685 0.600896C49.4522 0.188608 48.3196 -0.0283215 47.1283 0.0029723C42.9728 0.115691 39.7142 3.30006 39.7142 7.07931V14.7673C39.6897 14.258 39.3035 13.7874 39.1657 13.3469C38.816 12.2291 38.4235 11.307 37.4803 10.4514C36.8234 9.85261 36.0476 9.05902 35.1882 8.70993C34.1746 8.29825 33.0444 8.08163 31.8561 8.1111C27.6973 8.21713 24.435 11.4048 24.435 15.1874V52.0387L27.457 53.951L24.435 56.5994L14.7762 42.8909C12.5045 39.6655 7.78058 38.7188 4.22462 40.7794C1.94513 42.1019 0.694336 44.3435 0.694336 46.6292Z" fill="#FED2A4"/>
<path d="M41.9867 68.4541C41.9867 69.712 40.9713 70.7328 39.7202 70.7328C38.4661 70.7328 37.4538 69.712 37.4538 68.4541C37.4538 61.925 31.6244 56.605 24.4592 56.5959H24.4351V52.0386H24.4623H24.4653C34.1266 52.0507 41.9867 59.4154 41.9867 68.4541Z" fill="#FFBD86"/>
<path d="M39.7205 40.5633C39.7205 41.8211 38.7051 42.8419 37.454 42.8419C36.1999 42.8419 35.1875 41.8211 35.1875 40.5633V8.71045C36.0488 9.05985 36.8254 9.549 37.4812 10.1475C38.7957 11.3385 39.6268 12.967 39.7144 14.7656L39.7205 40.5633Z" fill="#FFBD86"/>
<path d="M54.9993 6.83905V40.5634C54.9993 41.8212 53.9869 42.8421 52.7328 42.8421C51.4817 42.8421 50.4663 41.8212 50.4663 40.5634V0.601562C51.3276 0.950959 52.1042 1.44011 52.763 2.03561C54.1199 3.26913 54.966 4.96446 54.9993 6.83905Z" fill="#FFBD86"/>
<path d="M70.2815 12.9185V40.5634C70.2815 41.8212 69.2661 42.8421 68.015 42.8421C66.7639 42.8421 65.7485 41.8212 65.7485 40.5634V6.68408C66.6098 7.03348 67.3864 7.5196 68.0422 8.11813C69.3991 9.35165 70.2483 11.0439 70.2815 12.9185Z" fill="#FFBD86"/>
<path d="M85.5638 21.1491V70.2773C85.5638 75.3724 83.4 80.0117 79.8582 83.4753C77.7701 85.5201 76.6731 88.2393 76.6731 91.0284V147.649C76.6731 149.499 75.0533 151 73.0527 151H63.6807C65.6812 151 67.301 149.499 67.301 147.649V91.0284C67.301 88.2393 68.398 85.5201 70.4862 83.4753C74.0279 80.0117 76.4978 75.3724 76.4978 70.2773V21.1491C76.4978 19.2259 75.6426 17.488 74.2615 16.2302C73.9896 15.981 73.6964 15.7532 73.3852 15.5466C74.6514 14.6928 76.2228 14.1885 77.9212 14.1885C80.0305 14.1885 81.9404 14.9693 83.3275 16.2302C84.7085 17.488 85.5638 19.2259 85.5638 21.1491Z" fill="#FFBD86"/>
<path d="M80.5094 108.174V133.964C80.5094 135.642 79.4587 136.699 77.7896 136.699L69.0926 137.002H28.8755C27.2065 137.002 25.8535 135.642 25.8535 133.964V108.174C25.8535 106.496 27.2065 105.136 28.8755 105.136H69.2057L77.7896 105.44C79.4587 105.44 80.5094 106.496 80.5094 108.174Z" fill="#EFA4C7"/>
<path d="M65.7941 141.498L58.8919 141.801H40.7957C39.9613 141.801 39.2847 141.121 39.2847 140.282V101.857C39.2847 101.018 39.9613 100.337 40.7957 100.337H58.7892L65.7941 100.641C66.6285 100.641 67.0029 101.018 67.0029 101.857V140.282C67.0029 141.121 66.6285 141.498 65.7941 141.498Z" fill="#CECED5"/>
<path d="M67.3048 101.857V140.281C67.3048 141.123 66.6279 141.8 65.7938 141.8H58.8916C59.7257 141.8 60.4026 141.123 60.4026 140.281V101.857C60.4026 101.018 59.7257 100.337 58.8916 100.337H65.7938C66.6279 100.337 67.3048 101.018 67.3048 101.857Z" fill="#BBBBC2"/>
<path d="M58.8915 120.481L54.4307 120.785H47.698C46.8636 120.785 46.187 120.105 46.187 119.266V111.51C46.187 110.671 46.8636 109.991 47.698 109.991H54.3588L58.8915 110.295C59.7258 110.295 60.1003 110.671 60.1003 111.51V119.266C60.1003 120.105 59.7258 120.481 58.8915 120.481Z" fill="#F3F0F3"/>
<path d="M60.4029 111.509V119.265C60.4029 120.104 59.7259 120.785 58.8919 120.785H54.3589C55.193 120.785 55.8699 120.104 55.8699 119.265V111.509C55.8699 110.67 55.193 109.99 54.3589 109.99H58.8919C59.7259 109.99 60.4029 110.67 60.4029 111.509Z" fill="#E2DEE2"/>
<path d="M80.813 108.176V133.964C80.813 135.642 79.4592 137.003 77.791 137.003H68.7251C70.3932 137.003 71.7471 135.642 71.7471 133.964V108.176C71.7471 106.496 70.3932 105.138 68.7251 105.138H77.791C79.4592 105.138 80.813 106.496 80.813 108.176Z" fill="#AF52DE"/>
<path d="M45.0014 133.635C43.7571 133.635 42.7485 132.621 42.7485 131.37C42.7485 130.119 43.7571 129.105 45.0014 129.105C46.2457 129.105 47.2543 130.119 47.2543 131.37C47.2543 132.621 46.2457 133.635 45.0014 133.635Z" fill="#95D6A4"/>
<path d="M61.5229 133.635C60.2786 133.635 59.27 132.621 59.27 131.37C59.27 130.119 60.2786 129.105 61.5229 129.105C61.6785 129.105 61.8303 129.121 61.977 129.151C63.0035 129.362 63.477 130.275 63.477 131.37C63.477 132.411 63.0773 133.288 62.1258 133.553C61.934 133.606 61.7317 133.635 61.5229 133.635Z" fill="#FFE07D"/>
<path d="M62.1255 133.551C63.077 133.285 63.7764 132.411 63.7764 131.37C63.7764 130.329 63.077 129.454 62.1255 129.189V133.551Z" fill="#FFD064"/>
<path d="M54.4786 129.105C54.0086 129.105 53.5813 129.278 53.2621 129.561C52.9431 129.278 52.5157 129.105 52.0457 129.105C51.0586 129.105 50.2583 129.868 50.2583 130.81C50.2583 131.281 50.4584 131.707 50.7818 132.016L53.2621 134.388L53.2641 134.39L55.7425 132.016C56.0659 131.707 56.266 131.281 56.266 130.81C56.266 129.868 55.4657 129.105 54.4786 129.105Z" fill="#FF4439"/>
</svg>
